<?xml version="1.0" encoding="UTF-8"?>
<svg id="Capa_2" data-name="Capa 2" xmlns="http://www.w3.org/2000/svg" viewBox="0 0 844.52 593.44">
  <defs>
    <style>
      .cls-1 {
        fill: #fff;
      }
    </style>
  </defs>
  <g id="LogoWeb">
    <g id="G-Logo">
      <path class="cls-1" d="M475.8,108.4s-26.57,93.01,73.63,121.8c0,0,43.18-45.4,79.72-95.78,0,0,65.88-89.69,111.28-69.21-.62-.28-1.59-3.9-1.87-4.53-1.83-4.02-3.98-7.89-6.34-11.61-7.6-11.97-17.64-22.41-29.56-30.13-20.58-13.33-46.58-18.41-70.7-14.16-14.34,2.52-28.23,8.69-41.15,15.27-36.85,18.78-69.6,45.43-99.66,73.57-2.55,2.38-5.08,4.79-7.59,7.2-1.78,1.71-7.11,5.27-7.77,7.58Z"/>
      <path class="cls-1" d="M640.23,145.49c15.99-24.24,36.77-50.08,62.21-64.69,21.59-12.4,45.66-9.69,51.71,15.52,6.07,25.26-.25,53.85-5.96,78.51-7.2,20.25-14.27,40.55-21.25,60.88-18.36,53.45-37.62,106.65-40.56,163.88-.12,2.4-.2,4.81-.2,7.22,0,0-22.7-82.49-10.52-209.28,0,0,10.52-64.22-35.43-52.04Z"/>
      <path class="cls-1" d="M661.82,164.31s-42.63,478.9,182.7,254.68c-2.16,2.15-3.37,7.92-4.67,10.66-4.22,8.85-9.01,17.44-14.33,25.68-14.62,22.66-33.79,43.72-58.37,55.63-31.84,15.43-70.04,10.98-99.98-7.09-23.42-14.13-38.13-38.66-46.38-64.15-8.19-25.3-10.39-52.28-9.41-78.74,1.53-41.17,10.63-81.88,22.78-121.12,7.93-25.63,17.32-50.79,27.66-75.54Z"/>
      <path class="cls-1" d="M368.73,105.08s26.57,93.01-73.63,121.8c0,0-43.18-45.4-79.72-95.78,0,0-65.88-89.69-111.28-69.21,.62-.28,1.59-3.9,1.87-4.53,1.83-4.02,3.98-7.89,6.34-11.61,7.6-11.97,17.64-22.41,29.56-30.13C162.44,2.29,188.44-2.78,212.56,1.46c14.34,2.52,28.23,8.69,41.15,15.27,36.85,18.78,69.6,45.43,99.66,73.57,2.55,2.38,5.08,4.79,7.59,7.2,1.78,1.71,7.11,5.27,7.77,7.58Z"/>
      <path class="cls-1" d="M204.29,142.18c-15.99-24.24-36.77-50.08-62.21-64.69-21.59-12.4-45.66-9.69-51.71,15.52-6.07,25.26,.25,53.85,5.96,78.51,7.2,20.25,14.27,40.55,21.25,60.88,18.36,53.45,37.62,106.65,40.56,163.88,.12,2.4,.2,4.81,.2,7.22,0,0,22.7-82.49,10.52-209.28,0,0-10.52-64.22,35.43-52.04Z"/>
      <path class="cls-1" d="M182.7,161S225.33,639.9,0,415.68c2.16,2.15,3.37,7.92,4.67,10.66,4.22,8.85,9.01,17.44,14.33,25.68,14.62,22.66,33.79,43.72,58.37,55.63,31.84,15.43,70.04,10.98,99.98-7.09,23.42-14.13,38.13-38.66,46.38-64.15,8.19-25.3,10.39-52.28,9.41-78.74-1.53-41.17-10.63-81.88-22.78-121.12-7.93-25.63-17.32-50.79-27.66-75.54Z"/>
      <path class="cls-1" d="M387.08,113.44s10.52,71.37-47.61,113.44h171.08s-57.58-15.38-55.36-113.44h-68.1Z"/>
      <path class="cls-1" d="M282.79,236.9h128.84c1.83,0,3.31,1.48,3.31,3.31v134.49c0,2.95-3.57,4.43-5.65,2.34l-38.96-38.96c-.62-.62-.97-1.46-.97-2.34v-50.13c0-1.83-1.48-3.31-3.31-3.31h-37.11c-1.83,0-3.31,1.48-3.31,3.31v22.81c0,.88,.35,1.72,.97,2.34l87.29,87.29c.62,.62,.97,1.46,.97,2.34v186.26c0,2.22-2.81,3.19-4.17,1.44l-130.49-167.23c-.45-.58-.7-1.3-.7-2.04v-65.05c0-2.95,3.57-4.43,5.65-2.34l39.14,39.14c.62,.62,.97,1.46,.97,2.34v9.29c0,.75,.25,1.47,.72,2.06l36.93,46.63c1.95,2.46,5.91,1.08,5.91-2.06v-29.71c0-.88-.35-1.72-.97-2.34l-87.56-87.56c-.62-.62-.97-1.47-.97-2.35l.18-86.67c0-1.83,1.49-3.3,3.31-3.3Z"/>
      <path class="cls-1" d="M567.14,236.89h-129.14c-1.96,0-3.56,1.59-3.56,3.56v352.99l44.72-58.08c.48-.62,.74-1.38,.74-2.17v-137.69c0-2.96,3.4-4.62,5.74-2.81l26.28,20.41c1.5,1.16,1.82,3.3,.73,4.85h0c-.42,.6-.64,1.31-.64,2.04v63.21c0,3.37,4.25,4.85,6.35,2.21l51.58-65.2c.5-.63,.77-1.41,.77-2.21v-15.83c0-1.1-.51-2.15-1.39-2.82l-14.31-11.01c-2.69-2.07-1.23-6.38,2.17-6.38h9.97c1.96,0,3.56-1.59,3.56-3.56V240.45c0-1.96-1.59-3.56-3.56-3.56Zm-45.98,99.66h-37.17c-1.96,0-3.56-1.59-3.56-3.56v-46.41c0-1.96,1.59-3.56,3.56-3.56h37.17c1.96,0,3.56,1.59,3.56,3.56v46.41c0,1.96-1.59,3.56-3.56,3.56Z"/>
    </g>
  </g>
</svg>